<svg width="20" height="20" viewBox="0 0 20 20" fill="none" xmlns="http://www.w3.org/2000/svg">
  <path
    d="M12.5908 6.00081L10 8.59161L7.4092 6.00081L5.99879 7.41122L8.58959 10.002L5.99879 12.5928L7.4092 14.0032L10 11.4124L12.5908 14.0032L14.0012 12.5928L11.4104 10.002L14.0012 7.41122L12.5908 6.00081ZM10 0C4.46933 0 0 4.46933 0 10C0 15.5307 4.46933 20 10 20C15.5307 20 20 15.5307 20 10C20 4.46933 15.5307 0 10 0ZM10 18.0004C5.58918 18.0004 1.9996 14.4108 1.9996 10C1.9996 5.58918 5.58918 1.9996 10 1.9996C14.4108 1.9996 18.0004 5.58918 18.0004 10C18.0004 14.4108 14.4108 18.0004 10 18.0004Z"
    fill="white" fill-opacity="0.45098" />
</svg>