<svg width="20" height="20" viewBox="0 0 20 20" fill="none" xmlns="http://www.w3.org/2000/svg">
  <path
    d="M10 20C15.5228 20 20 15.5228 20 10C20 4.47715 15.5228 0 10 0C4.47715 0 0 4.47715 0 10C0 15.5228 4.47715 20 10 20Z"
    fill="white" />
  <path fill-rule="evenodd" clip-rule="evenodd"
    d="M10 0C4.47851 0 0 4.48167 0 10C0 15.5215 4.48167 20 10 20C15.5215 20 20 15.5183 20 10C20 4.47851 15.5183 0 10 0ZM10 17.9994C5.59102 17.9994 2.00063 14.409 2.00063 10C2.00063 5.59102 5.59102 2.00063 10 2.00063C14.409 2.00063 17.9994 5.59102 17.9994 10C17.9994 14.409 14.409 17.9994 10 17.9994ZM10.7901 15.7174H9.02023V13.7611H10.9798V15.7174H10.7901ZM12.5601 9.53856L11.8489 10.2655C11.5771 10.5405 11.3559 10.7901 11.2073 11.103C11.0588 11.4159 10.9766 11.8047 10.9766 12.3673V12.5569H9.01707V11.9722C9.01707 11.5234 9.10872 11.0904 9.26991 10.6985C9.44058 10.2876 9.6871 9.91783 9.99684 9.60493L10.9798 8.60619C11.1094 8.47977 11.2137 8.32807 11.2832 8.16056C11.3527 7.99621 11.3875 7.81606 11.3875 7.62642C11.3875 7.24399 11.2295 6.89633 10.9798 6.64349C10.7269 6.39065 10.3793 6.23578 9.99684 6.23578C9.61441 6.23578 9.26675 6.39381 9.01391 6.64349C8.76106 6.89633 8.60619 7.24399 8.60619 7.62642V7.81606H6.64665V7.62642C6.64665 6.70038 7.02276 5.86599 7.62642 5.25917C8.23325 4.65234 9.0708 4.27939 9.99368 4.27939C10.9197 4.27939 11.7541 4.6555 12.3609 5.25917C12.9678 5.86599 13.3407 6.70354 13.3407 7.62642C13.3407 7.98989 13.268 8.34071 13.1353 8.65992C12.9994 8.99178 12.7971 9.29204 12.5506 9.5354L12.5601 9.53856Z"
    fill="#1B1B26" fill-opacity="0.4" />
</svg>