<svg width="20" height="20" viewBox="0 0 20 20" fill="none" xmlns="http://www.w3.org/2000/svg">
  <path
    d="M10 20C15.5228 20 20 15.5228 20 10C20 4.47715 15.5228 0 10 0C4.47715 0 0 4.47715 0 10C0 15.5228 4.47715 20 10 20Z"
    fill="white" />
  <path fill-rule="evenodd" clip-rule="evenodd"
    d="M10 0C4.47935 0 0 4.47935 0 10C0 15.5207 4.47935 20 10 20C15.5207 20 20 15.5207 20 10C20 4.47935 15.5207 0 10 0ZM10 17.9991C5.5895 17.9991 2.00086 14.4105 2.00086 10C2.00086 5.5895 5.5895 2.00086 10 2.00086C14.4105 2.00086 17.9991 5.5895 17.9991 10C17.9991 14.4105 14.4105 17.9991 10 17.9991ZM14.2857 10.5766C14.3029 10.4303 14.3158 10.2926 14.3244 10.1463V9.858C14.3072 9.5654 14.2685 9.28141 14.2298 8.99312L15.7143 7.83133L14.7332 6.13597L12.9862 6.83735L12.6334 6.56627C12.5645 6.51463 12.4871 6.45869 12.4053 6.40275C12.3236 6.34682 12.2461 6.29948 12.1687 6.25215C12.0869 6.20482 12.0009 6.15749 11.9191 6.11876C11.833 6.07573 11.747 6.037 11.6652 6.00258L11.2522 5.83477L10.9854 3.9716H9.02754L8.76076 5.83046L8.34768 5.99828C8.26162 6.0327 8.17986 6.07143 8.09811 6.11446C8.00775 6.15749 7.92599 6.20482 7.84854 6.24785C7.75818 6.30379 7.67642 6.35112 7.60327 6.40275C7.52151 6.45869 7.44406 6.51463 7.36661 6.57057L7.01377 6.83305L5.27108 6.13167L4.29002 7.82702L5.77453 8.98881C5.7401 9.28141 5.70138 9.5611 5.67986 9.858V10.142L5.70138 10.4174L5.77453 11.0112L4.29002 12.1687L5.27108 13.864L7.01807 13.1627L7.37091 13.4337C7.44406 13.4897 7.51721 13.5456 7.60327 13.5972C7.68503 13.6532 7.76248 13.7005 7.83993 13.7478C7.92169 13.7952 8.00774 13.8425 8.0895 13.8812C8.17986 13.9243 8.26162 13.963 8.34337 13.9974L8.75645 14.1695L9.02324 16.0284H10.9811L11.2478 14.1695L11.6609 14.0017C11.7384 13.9673 11.8244 13.9286 11.9148 13.8855C12.0052 13.8382 12.0869 13.7952 12.1601 13.7522C12.2418 13.7048 12.3236 13.6532 12.4053 13.5972C12.4871 13.5413 12.5688 13.4854 12.642 13.4294L12.9948 13.167L14.7375 13.8683L15.7186 12.173L14.2857 11.0499C14.2857 10.895 14.2728 10.7315 14.2943 10.5809L14.2857 10.5766ZM10 7.68933C11.278 7.68933 12.3107 8.72203 12.3107 10C12.3107 11.278 11.278 12.3107 10 12.3107C8.72633 12.3107 7.68933 11.278 7.68933 10C7.68933 8.72203 8.72203 7.68933 10 7.68933Z"
    fill="#1B1B26" fill-opacity="0.4" />
</svg>