<svg width="21" height="21" viewBox="0 0 21 21" fill="none" xmlns="http://www.w3.org/2000/svg">
  <path
    d="M10.002 0C4.48025 0 0 4.48025 0 10.002C0 15.5238 4.48025 20.004 10.002 20.004C15.5238 20.004 20.004 15.5238 20.004 10.002C20.004 4.48025 15.5238 0 10.002 0ZM10.002 18.0028C5.59062 18.0028 2.00126 14.4134 2.00126 10.002C2.00126 5.59062 5.59062 2.00126 10.002 2.00126C14.4134 2.00126 18.0028 5.59062 18.0028 10.002C18.0028 14.4134 14.4134 18.0028 10.002 18.0028ZM14.2886 10.5787C14.3058 10.4324 14.3187 10.2947 14.3273 10.1483V9.85998C14.3101 9.56733 14.2714 9.28328 14.2326 8.99492L15.7174 7.8329L14.7362 6.13721L12.9888 6.83872L12.6359 6.56758C12.5671 6.51594 12.4896 6.45999 12.4078 6.40404C12.3261 6.34809 12.2486 6.30075 12.1711 6.25341C12.0893 6.20607 12.0033 6.15872 11.9215 6.11999C11.8354 6.07695 11.7493 6.03822 11.6676 6.00379L11.2544 5.83594L10.9876 3.9724H9.02935L8.76252 5.83164L8.34935 5.99948C8.26328 6.03391 8.18151 6.07265 8.09973 6.11569C8.00935 6.15872 7.92758 6.20607 7.85011 6.2491C7.75973 6.30505 7.67796 6.35239 7.6048 6.40404C7.52303 6.45999 7.44556 6.51594 7.36809 6.57189L7.01518 6.83442L5.27214 6.1329L4.29088 7.82859L5.77569 8.99062C5.74126 9.28328 5.70252 9.56302 5.681 9.85998V10.144L5.70252 10.4195L5.77569 11.0134L4.29088 12.1711L5.27214 13.8668L7.01948 13.1653L7.37239 13.4364C7.44556 13.4924 7.51872 13.5483 7.6048 13.6C7.68657 13.6559 7.76404 13.7033 7.84151 13.7506C7.92328 13.798 8.00935 13.8453 8.09113 13.884C8.18151 13.9271 8.26328 13.9658 8.34505 14.0002L8.75821 14.1724L9.02505 16.0316H10.9833L11.2501 14.1724L11.6633 14.0045C11.7407 13.9701 11.8268 13.9314 11.9172 13.8883C12.0076 13.841 12.0893 13.798 12.1625 13.7549C12.2443 13.7076 12.3261 13.6559 12.4078 13.6C12.4896 13.544 12.5714 13.4881 12.6445 13.4321L12.9974 13.1696L14.7405 13.8711L15.7217 12.1754L14.2886 11.0521C14.2886 10.8972 14.2757 10.7337 14.2972 10.583L14.2886 10.5787ZM10.002 7.69518C11.2802 7.69518 12.3131 8.72809 12.3131 10.0063C12.3131 11.2845 11.2802 12.3174 10.002 12.3174C8.72809 12.3174 7.69087 11.2845 7.69087 10.0063C7.69087 8.72809 8.72378 7.69518 10.002 7.69518Z"
    fill="white" fill-opacity="0.45098" />
</svg>